<?xml version="1.0" encoding="UTF-8"?>
<svg version="1.1" xmlns="http://www.w3.org/2000/svg" width="1024" height="1024">
<path d="M0 0 C337.92 0 675.84 0 1024 0 C1024 337.92 1024 675.84 1024 1024 C686.08 1024 348.16 1024 0 1024 C0 686.08 0 348.16 0 0 Z " fill="#F8F8F8" transform="translate(0,0)"/>
<path d="M0 0 C0.77375977 0.38269043 1.54751953 0.76538086 2.34472656 1.15966797 C6.28195791 3.10844418 10.20907812 5.07650196 14.13037109 7.05712891 C16.67764907 8.34174467 19.22954588 9.61702784 21.78173828 10.8918457 C23.09417313 11.54741195 24.40634771 12.2034995 25.71826172 12.86010742 C29.45094178 14.72825899 33.18673468 16.58993304 36.92578125 18.4453125 C45.19862279 22.55645339 53.42963586 26.71687698 61.56103516 31.1015625 C67.96450583 34.54357979 74.46978603 37.77366911 80.98388672 41 C84.32686061 42.658128 87.66309087 44.3297104 91 46 C92.33330078 46.66673178 93.66663412 47.33339843 95 48 C119 60 119 60 120.88843727 60.94425297 C122.21860925 61.60931733 123.54881375 62.27431663 124.87906456 62.93922329 C128.14856788 64.57356269 131.4175604 66.20889983 134.68496704 67.84742737 C142.23583922 71.63197258 149.80043145 75.38696294 157.38260841 79.10839176 C163.5807736 82.15074845 169.77121812 85.20854107 175.95888329 88.27219296 C180.08940677 90.3165081 184.22276856 92.35462453 188.36279297 94.37963867 C192.42140412 96.36517291 196.47176963 98.36669372 200.51713943 100.37906075 C202.04113902 101.13375467 203.5679118 101.8828789 205.09763718 102.62589836 C217.60032958 108.70541914 229.07322604 115.15920246 234 129 C234.80333668 132.43416616 235.12641838 135.60882856 235.13142776 139.13196087 C235.13526891 140.14941724 235.13911005 141.1668736 235.1430676 142.21516198 C235.14220112 143.32604253 235.14133463 144.43692308 235.14044189 145.58146667 C235.14489858 147.35976198 235.14489858 147.35976198 235.1494453 149.17398244 C235.15661736 152.46124592 235.15930398 155.74847753 235.16004276 159.03574765 C235.16189611 162.58258404 235.16944488 166.12940916 235.17617798 169.67623901 C235.18975062 177.43049774 235.19578439 185.18475129 235.20018864 192.93901992 C235.20295295 197.78266938 235.20719065 202.62631686 235.21169281 207.46996498 C235.22388423 220.88584232 235.2341837 234.30171806 235.2375679 247.71760082 C235.23778747 248.57598447 235.23800703 249.43436812 235.23823325 250.31876339 C235.23845153 251.17917817 235.23866981 252.03959294 235.2388947 252.92608088 C235.23933816 254.66955197 235.23978473 256.41302306 235.24023438 258.15649414 C235.2404558 259.02131243 235.24067723 259.88613071 235.24090537 260.77715562 C235.24485232 274.78630223 235.26230375 288.7953968 235.2855939 302.80452331 C235.30932339 317.19430987 235.32177048 331.58407033 235.32293582 345.97387677 C235.3238517 354.05045076 235.32958198 362.12695692 235.34775543 370.20351219 C235.36317802 377.08168687 235.36826419 383.95977277 235.36001733 390.83796146 C235.3561184 394.34503845 235.35700311 397.85193677 235.37107468 401.35899162 C235.38377927 405.16735275 235.37792475 408.97525706 235.36749268 412.78361511 C235.37554908 413.88334205 235.38360548 414.98306899 235.39190602 416.11612099 C235.31931061 427.46831896 232.77785387 436.22091491 224.65600586 444.34423828 C219.42003161 449.18634554 213.39653532 452.1915801 207.0625 455.375 C205.89678467 455.97006348 204.73106934 456.56512695 203.5300293 457.17822266 C199.69425276 459.13393465 195.84773514 461.06794974 192 463 C190.62302511 463.69266506 189.24607226 464.38537396 187.86914062 465.078125 C181.12395376 468.46933008 174.37222251 471.8472327 167.61328125 475.2109375 C166.99151505 475.52042328 166.36974884 475.82990906 165.72914124 476.14877319 C160.54924003 478.72690231 160.54924003 478.72690231 157.96307373 480.01281738 C149.42963448 484.25755203 140.93290524 488.55777495 132.5 493 C123.39586895 497.79580854 114.21257713 502.41744263 105 507 C79.49366536 519.61498731 79.49366536 519.61498731 54.23120117 532.70654297 C48.03746065 536.00706394 41.7627633 539.13317731 35.47607422 542.25219727 C29.77430356 545.08975811 24.12571046 548.01475055 18.5 551 C9.5038859 555.77113497 0.41216829 560.33438421 -8.7109375 564.85693359 C-10.85649356 565.92833861 -12.99243927 567.01628285 -15.125 568.11328125 C-15.75365967 568.43466064 -16.38231934 568.75604004 -17.0300293 569.0871582 C-18.67434467 569.92924767 -20.3158223 570.77687214 -21.95703125 571.625 C-31.0737894 575.74451075 -40.17362541 576.44457232 -49.75 573.5 C-54.19431135 571.80793083 -58.41803406 569.85742605 -62.66015625 567.7109375 C-64.08311698 566.99370878 -65.50613596 566.27659559 -66.92919922 565.55957031 C-67.72590027 565.15710083 -68.52260132 564.75463135 -69.34344482 564.33996582 C-74.58169877 561.69779174 -79.82870575 559.0730369 -85.07421875 556.4453125 C-86.25333832 555.85461975 -87.43245789 555.263927 -88.64730835 554.65533447 C-90.474464 553.74001746 -92.30164514 552.82475151 -94.12890053 551.90963364 C-97.20944335 550.36678218 -100.28959466 548.82315903 -103.36889648 547.27783203 C-116.23819504 540.82009116 -129.11001135 534.37775597 -142.15055847 528.27041626 C-147.64533482 525.68875701 -153.02406294 522.92985229 -158.375 520.0625 C-165.0302389 516.51688208 -171.74436291 513.15946171 -178.5625 509.9375 C-188.58995344 505.19765966 -198.52297241 500.28288563 -208.4375 495.3125 C-209.14335236 494.95864227 -209.84920471 494.60478455 -210.57644653 494.24020386 C-216.09494404 491.4726377 -221.61264328 488.70346644 -227.12808228 485.92980957 C-234.81310885 482.06596818 -242.50681615 478.24077562 -250.3125 474.625 C-258.36408141 470.84912009 -266.24346719 466.80354507 -274.08203125 462.60546875 C-277.53259202 460.76092613 -281.00985301 458.98340316 -284.51171875 457.23828125 C-308.9388107 444.98305082 -308.9388107 444.98305082 -314 432 C-315.70447295 426.39089863 -315.39188357 420.42317362 -315.5546875 414.609375 C-315.57562344 413.88952171 -315.59655937 413.16966843 -315.61812973 412.4280014 C-316.34669032 386.43955983 -316.15398264 360.430045 -316.12713432 334.43370771 C-316.1242714 331.50454213 -316.12212905 328.57537618 -316.11996174 325.64621001 C-316.10494617 305.75625563 -316.0670581 285.86639136 -316.0169611 265.97649676 C-316.0034599 260.56479849 -315.99185847 255.15309835 -315.9810791 249.74139404 C-315.9479003 233.40962108 -315.90016591 217.07806024 -315.81288338 200.74647713 C-315.80539475 199.33997735 -315.79792232 197.93347749 -315.79046631 196.52697754 C-315.78496405 195.49010955 -315.78496405 195.49010955 -315.77935064 194.43229473 C-315.75462898 189.58829201 -315.73992796 184.74432136 -315.72955322 179.90026855 C-315.71546752 173.40162414 -315.68070598 166.90329525 -315.63181686 160.40481758 C-315.61706608 158.03078991 -315.60895641 155.65670998 -315.60808182 153.28263664 C-315.60572678 150.04111143 -315.57884895 146.80066456 -315.54589844 143.55932617 C-315.55092943 142.628866 -315.55596043 141.69840584 -315.56114388 140.73974991 C-315.41025522 131.21233771 -312.21787448 123.05777953 -305.57421875 116.1875 C-294.51427519 106.78906541 -279.61262758 101.30872882 -266.59399414 95.11108398 C-259.33575004 91.64768243 -252.16329326 88.06687281 -245.06230164 84.29067993 C-235.93372423 79.46314764 -226.73191602 74.79781069 -217.49145508 70.18896484 C-215.83967114 69.36321449 -214.18797617 68.53728614 -212.53636169 67.7111969 C-208.11595901 65.50085403 -203.69434036 63.29295431 -199.27247453 61.08554029 C-194.60813906 58.75653896 -189.94496744 56.42520956 -185.28166199 54.09414673 C-176.46233449 49.68602826 -167.64199177 45.27994527 -158.82126683 40.87462389 C-148.83294815 35.88605104 -138.84576169 30.89521352 -128.85867465 25.90417552 C-111.76269187 17.36051678 -94.66592486 8.8184293 -77.56808472 0.27848816 C-76.48613628 -0.26199083 -76.48613628 -0.26199083 -75.3823303 -0.81338859 C-73.98032342 -1.51361012 -72.57819247 -2.2135833 -71.1759268 -2.91328645 C-67.60987419 -4.6932247 -64.04688222 -6.47897268 -60.48795128 -8.27311325 C-59.75474401 -8.64195708 -59.02153674 -9.0108009 -58.26611108 -9.39082181 C-56.87009002 -10.09330033 -55.4748616 -10.79735707 -54.08056718 -11.50325644 C-35.43137334 -20.87729353 -16.80709436 -8.34954366 0 0 Z " fill="#1582DD" transform="translate(552,250)"/>
<path d="M0 0 C3.55614698 1.1625479 6.88493127 2.32401228 10.1796875 4.1015625 C11.31301514 4.70701904 11.31301514 4.70701904 12.46923828 5.32470703 C13.26313965 5.75380371 14.05704102 6.18290039 14.875 6.625 C16.57746948 7.53248084 18.28060506 8.43871309 19.984375 9.34375 C20.83064453 9.79363281 21.67691406 10.24351562 22.54882812 10.70703125 C30.62143127 14.965249 38.80581552 18.99912021 47.08453751 22.84007359 C53.73557791 25.92959481 60.27674989 29.15262749 66.74707031 32.60571289 C76.99960904 38.03682488 87.35485159 43.25037889 97.734375 48.43359375 C99.67000015 49.40174475 101.60556602 50.37001427 103.54107666 51.33839417 C107.56742777 53.3522999 111.59448393 55.36478656 115.62207031 57.3762207 C120.7141166 59.91940231 125.80434771 62.4661933 130.89410019 65.01396179 C158.16347174 78.67290004 158.16347174 78.67290004 185.63183594 91.92504883 C191.55445142 94.72630101 197.40622657 97.66297748 203.25 100.625 C205.25427952 101.63985727 207.25944427 102.65296876 209.265625 103.6640625 C210.10899414 104.09154785 210.95236328 104.5190332 211.82128906 104.95947266 C216.22488256 107.06257838 220.20892038 107.24956988 225 107.3125 C225.70511719 107.34150391 226.41023437 107.37050781 227.13671875 107.40039062 C237.79696391 107.52479205 247.03696318 102.18256304 256.1875 97.25 C262.54647874 93.85734797 268.9231268 90.51436087 275.375 87.30126953 C276.07022609 86.95435247 276.76545218 86.60743542 277.48174572 86.25000572 C279.6542062 85.16608604 281.82710034 84.08303895 284 83 C285.33095908 82.33598042 286.6618775 81.67187935 287.99275208 81.00769043 C290.66102094 79.67610592 293.32944749 78.34483825 295.9980011 77.01382446 C301.23615899 74.40094462 306.47326042 71.78594938 311.71027088 69.17077065 C315.65242598 67.20229817 319.59495463 65.23458148 323.53833008 63.26855469 C345.0208279 52.58824383 345.0208279 52.58824383 366.30578613 41.5222168 C372.4923072 38.23607721 378.74747881 35.09594095 385.01953125 31.9765625 C386.06335464 31.45740265 387.10717804 30.9382428 388.18263245 30.40335083 C392.46072506 28.27801984 396.74022051 26.15555198 401.02172852 24.03710938 C404.21040164 22.45822582 407.39693786 20.87515456 410.58203125 19.2890625 C412.1312175 18.5180722 412.1312175 18.5180722 413.71170044 17.73150635 C421.970478 13.58861183 430.0804725 9.19957019 438.10786438 4.62442017 C438.95745224 4.14814178 439.8070401 3.6718634 440.68237305 3.18115234 C441.42279343 2.75877289 442.16321381 2.33639343 442.92607117 1.9012146 C445 1 445 1 449 1 C449.06839725 30.24955609 449.12150806 59.49910651 449.15319599 88.74872618 C449.15694823 92.19975313 449.16083119 95.65077992 449.16479492 99.10180664 C449.16558185 99.78886111 449.16636878 100.47591557 449.16717956 101.18378987 C449.18024328 112.31714635 449.20390242 123.45045649 449.23145839 134.58378545 C449.25948576 146.00257601 449.27594595 157.4213289 449.28226548 168.84015483 C449.28618499 175.25606536 449.29543098 181.67187068 449.31719017 188.08774757 C449.33748783 194.12131939 449.34384744 200.15474224 449.33932304 206.18834496 C449.34015126 208.40758447 449.3461567 210.62682874 449.35761642 212.84603882 C449.37245529 215.86672712 449.36898509 218.88684662 449.36076355 221.907547 C449.36950207 222.79372658 449.3782406 223.67990616 449.38724393 224.59293967 C449.34295391 230.57787145 449.34295391 230.57787145 447.66652185 232.64132607 C445.08026286 234.74983888 442.13820026 236.12931375 439.16137695 237.59632874 C438.46168132 237.94710541 437.76198568 238.29788208 437.04108715 238.65928835 C434.69296313 239.83465131 432.3406534 241.00137825 429.98828125 242.16821289 C428.30414223 243.00904072 426.62027007 243.85040326 424.93664551 244.69226074 C421.30599776 246.50623041 417.67347497 248.31637003 414.03945923 250.12358284 C408.27620145 252.98968607 402.51711554 255.86410247 396.75854492 258.73960876 C387.62855835 263.29734851 378.49570502 267.84931089 369.36166668 272.39892429 C353.06335425 280.51723306 336.76976117 288.64500533 320.47740459 296.77525896 C314.77121335 299.62249121 309.06375714 302.46716639 303.35518074 305.30961335 C299.77216773 307.0941153 296.19000613 308.88032168 292.60801697 310.66687775 C290.96833568 311.48422237 289.32830074 312.30085806 287.68785095 313.11665916 C276.72624778 318.568424 265.86079176 324.18345973 255.0442028 329.91753948 C250.12968945 332.51990686 245.19963868 335.08998235 240.25 337.625 C239.2496875 338.15222656 238.249375 338.67945313 237.21875 339.22265625 C227.71373643 344.06317242 227.71373643 344.06317242 222 343 C218.5312604 341.63624805 215.28446993 339.94341688 212 338.1875 C210.00882146 337.15690245 208.01660354 336.12831097 206.0234375 335.1015625 C205.01249023 334.57723633 204.00154297 334.05291016 202.95996094 333.51269531 C198.56056637 331.2643739 194.09555188 329.16466493 189.625 327.0625 C177.00642672 321.08817016 164.54419757 314.80158616 152.07666016 308.51977539 C143.36509144 304.13761579 134.62026915 299.8420203 125.8125 295.65625 C112.38613472 289.27219484 99.1134684 282.58948911 85.83398438 275.90673828 C73.7486916 269.82863474 61.63507917 263.83088184 49.41830444 258.02113342 C40.30915187 253.68516108 31.25739543 249.23855842 22.22998047 244.73510742 C19.55061567 243.40044726 16.8670929 242.07437127 14.18359375 240.74804688 C12.46849168 239.89374758 10.75363731 239.03895077 9.0390625 238.18359375 C7.84260605 237.59462563 7.84260605 237.59462563 6.62197876 236.99375916 C1.11426276 234.22852552 1.11426276 234.22852552 0 232 C-0.09615508 228.9763359 -0.13007538 225.97575152 -0.12025452 222.95187378 C-0.12110894 222.00278078 -0.12196337 221.05368778 -0.12284368 220.07583439 C-0.12449892 216.87589551 -0.11897638 213.67600833 -0.11352539 210.47607422 C-0.1132435 208.19009401 -0.11340128 205.9041137 -0.1139679 203.61813354 C-0.11425581 197.39530206 -0.10836011 191.17248971 -0.10139394 184.94966269 C-0.09515934 178.45269968 -0.09455652 171.95573628 -0.09336853 165.45877075 C-0.09060962 154.54851947 -0.08435565 143.63827527 -0.07543945 132.72802734 C-0.06626418 121.48909541 -0.05918391 110.25016539 -0.05493164 99.01123047 C-0.05466892 98.31877294 -0.05440619 97.62631541 -0.05413551 96.91287433 C-0.0528305 93.43911108 -0.05156678 89.96534781 -0.05032361 86.49158454 C-0.03995239 57.6610517 -0.02226108 28.83052602 0 0 Z " fill="#F7F8F8" transform="translate(288,428)"/>
<path d="M0 0 C7.02197915 3.61094657 11.26367864 7.81056447 14.125 15.25 C15.39899804 21.66075812 14.06464634 26.98284973 10.96484375 32.65234375 C7.94428875 36.91703394 4.2574587 40.43789715 0.453125 44 C-1.9016576 46.02634144 -1.9016576 46.02634144 -2.875 48.25 C-3.535 48.25 -4.195 48.25 -4.875 48.25 C-4.875 48.91 -4.875 49.57 -4.875 50.25 C-6.16015625 51.4765625 -6.16015625 51.4765625 -7.9375 52.875 C-10.55976116 55.0331475 -12.82281196 57.23859357 -15.00563049 59.83738708 C-19.3474576 64.86736022 -24.02043412 69.53543545 -28.72241211 74.22680664 C-29.6958797 75.20163244 -30.66913512 76.17667014 -31.64219666 77.15190125 C-34.26388039 79.77810941 -36.8886759 82.40118595 -39.51421428 85.02353978 C-42.27461851 87.78139446 -45.03256184 90.54170847 -47.79090881 93.30162048 C-52.42155438 97.9340802 -57.0542925 102.56443937 -61.68823242 107.19360352 C-67.02909341 112.52902335 -72.36634268 117.8680358 -77.70173067 123.20892817 C-82.30053479 127.81228494 -86.90130312 132.41367179 -91.50368887 137.0134477 C-94.2446671 139.75287497 -96.98498447 142.49295414 -99.72352409 145.23481941 C-102.29943243 147.81363784 -104.8778157 150.38995694 -107.45804787 152.96444893 C-108.84410761 154.3485775 -110.2277375 155.73513802 -111.61126709 157.12179565 C-116.00429914 161.50012079 -120.44526267 165.73213077 -125.19498539 169.72315121 C-126.91283814 171.28438846 -128.31987647 172.924991 -129.75 174.75 C-134.56481134 180.60978414 -142.33267626 186.71261425 -150.01171875 187.62109375 C-151.76935547 187.65396484 -151.76935547 187.65396484 -153.5625 187.6875 C-154.72136719 187.72746094 -155.88023437 187.76742187 -157.07421875 187.80859375 C-165.97832684 186.49997355 -172.08010793 180.60763258 -178.12890625 174.3515625 C-178.87405991 173.59837738 -179.61921356 172.84519226 -180.38694763 172.06918335 C-182.74687642 169.68049134 -185.09268734 167.27852358 -187.4375 164.875 C-189.78843752 162.48128301 -192.14228905 160.09050562 -194.49876404 157.70223999 C-195.95736636 156.2222708 -197.41242118 154.73879327 -198.86317444 153.25112915 C-202.71363816 149.326153 -206.67292438 145.63412344 -210.83836365 142.04693604 C-214.56565683 138.7583237 -218.07829063 135.2504649 -221.609375 131.75390625 C-222.40982239 130.96153061 -223.21026978 130.16915497 -224.03497314 129.35276794 C-225.71374044 127.68774005 -227.39102814 126.02121913 -229.06689453 124.35327148 C-230.77501397 122.65672644 -232.48760495 120.96467183 -234.20458984 119.27709961 C-236.70358525 116.82081188 -239.18902874 114.35150436 -241.671875 111.87890625 C-242.43546326 111.13282608 -243.19905151 110.38674591 -243.98577881 109.61805725 C-249.15022011 104.43247407 -253.21333549 99.51174464 -254.37109375 92.0546875 C-254.22492287 84.74614328 -253.52039067 80.2528759 -248.5625 74.625 C-241.89195288 68.73009789 -236.84718435 66.78198009 -228.05859375 66.9296875 C-217.46927737 67.99511565 -211.14953847 75.58151822 -204.23535156 82.85644531 C-202.45443577 84.68082926 -200.56598671 86.34825837 -198.625 88 C-195.18699092 90.92656971 -192.03748823 94.0693833 -188.87109375 97.28515625 C-186.95392823 99.17230744 -184.97924678 100.93685375 -182.9375 102.6875 C-179.94698284 105.25665271 -177.14383316 107.94317256 -174.375 110.75 C-170.98959965 114.17604838 -167.52365182 117.42290702 -163.8515625 120.5390625 C-162.45794545 121.74539504 -161.10122705 122.99500815 -159.7734375 124.2734375 C-159.08507812 124.92570313 -158.39671875 125.57796875 -157.6875 126.25 C-157.07519531 126.848125 -156.46289062 127.44625 -155.83203125 128.0625 C-153.91903154 129.48424364 -153.91903154 129.48424364 -151.52222252 129.06327152 C-148.3240989 128.08075387 -146.91808962 126.78869069 -144.56240845 124.42515564 C-143.73264999 123.602341 -142.90289154 122.77952637 -142.04798889 121.93177795 C-141.15123947 121.02221848 -140.25449005 120.112659 -139.33056641 119.17553711 C-138.36668064 118.21216032 -137.40192086 117.24965733 -136.43635559 116.28796387 C-133.81763089 113.67465939 -131.21150387 111.0491113 -128.60757113 108.42107844 C-125.87509683 105.66728382 -123.13165405 102.92445867 -120.38949585 100.18031311 C-115.78132357 95.56569109 -111.18061534 90.94373752 -106.58496094 86.31665039 C-100.70378868 80.39530353 -94.81132194 74.4853378 -88.91485023 68.57923031 C-83.82983131 63.48587343 -78.74926715 58.38807978 -73.66982222 53.28916478 C-72.58372309 52.19902877 -71.49747591 51.10904022 -70.41107988 50.01920009 C-67.30750651 46.90576637 -64.20634558 43.78997053 -61.10902977 40.67031097 C-59.73194095 39.28429128 -58.35255058 37.90055948 -56.97306824 36.516922 C-52.5910538 32.09737499 -48.34018045 27.62080138 -44.29127407 22.89298725 C-40.99952488 19.07430408 -37.37391407 15.56438439 -33.8125 12 C-33.03583984 11.21109375 -32.25917969 10.4221875 -31.45898438 9.609375 C-22.39130687 0.5186636 -13.08307192 -5.59762305 0 0 Z " fill="#1582DD" transform="translate(669.875,525.75)"/>
<path d="M0 0 C2.50352817 1.0844262 4.83578894 2.19554439 7.23046875 3.4765625 C8.64565408 4.20864862 10.06153802 4.93938544 11.47802734 5.66894531 C12.21599548 6.05183716 12.95396362 6.434729 13.71429443 6.82922363 C17.5867313 8.81275013 21.50698737 10.6961333 25.42578125 12.5859375 C27.0645445 13.38001979 28.70321552 14.17429245 30.34179688 14.96875 C32.82149605 16.16972863 35.30163834 17.36975755 37.78295898 18.56738281 C47.59003186 23.30337245 57.30814899 28.16338816 66.92811584 33.26939392 C74.6952652 37.38710676 82.53825438 41.34493501 90.40527344 45.26782227 C92.73783066 46.43142927 95.06822213 47.59928976 97.3984375 48.76757812 C105.90842746 53.02426308 114.45744711 57.18761584 123.05078125 61.2734375 C135.93409271 67.40335691 148.68678844 73.78744618 161.4375 80.1875 C163.74144089 81.34198761 166.04547694 82.49628535 168.34960938 83.65039062 C173.90083249 86.4314177 179.45089927 89.21474065 185 92 C185 93.32 185 94.64 185 96 C157 110 157 110 129 124 C128.28777283 124.37826935 127.57554565 124.7565387 126.84173584 125.14627075 C123.67080388 126.61614352 121.47876518 126.40378524 118 126 C114.18599889 124.50719996 110.6127453 122.61003047 107 120.6875 C99.42191219 116.73394579 91.80181325 112.93269392 84.078125 109.2734375 C68.55458826 101.900288 53.20426122 94.17780751 37.83789062 86.48413086 C33.59140476 84.35803123 29.34310634 82.23558172 25.09432316 80.11407757 C-5.0870698 65.04058743 -5.0870698 65.04058743 -17.97041321 58.17129517 C-26.20160804 53.79574062 -34.61967544 49.81179713 -43.03930664 45.81469727 C-51.94873928 41.57767515 -60.56826521 37.1425689 -69 32 C-67.6875 30.5 -67.6875 30.5 -66 29 C-65.01 29 -64.02 29 -63 29 C-63 28.34 -63 27.68 -63 27 C-61.75539217 26.32332002 -60.50403104 25.65905281 -59.25 25 C-58.55390625 24.62875 -57.8578125 24.2575 -57.140625 23.875 C-55 23 -55 23 -51 23 C-51 22.34 -51 21.68 -51 21 C-50.43152344 20.75765625 -49.86304688 20.5153125 -49.27734375 20.265625 C-45.54007524 18.64343834 -41.88687966 17.009429 -38.375 14.9375 C-35.66013045 13.37896377 -33.02890054 12.16156298 -30.14453125 10.9765625 C-27.20807771 9.63937965 -24.39884037 8.10007783 -21.5625 6.5625 C-20.43714844 5.95535156 -19.31179688 5.34820312 -18.15234375 4.72265625 C-16.29940762 3.71008521 -14.45424078 2.68261449 -12.62890625 1.62109375 C-7.87592817 -1.03797976 -5.25936467 -1.14500357 0 0 Z " fill="#F7F8F8" transform="translate(392,355)"/>
<path d="M0 0 C5.78337998 0.35575997 10.33690595 2.94288403 15.375 5.5625 C17.17049304 6.47932312 18.96606692 7.39598792 20.76171875 8.3125 C21.64907715 8.76882813 22.53643555 9.22515625 23.45068359 9.6953125 C26.37240921 11.19059135 29.31024313 12.65078899 32.25244141 14.10522461 C39.02030869 17.45329521 45.71640182 20.92305968 52.36401367 24.50415039 C58.96331583 28.03952085 65.67169338 31.35657008 72.37322998 34.69226074 C80.66256096 38.81910986 88.94759422 42.95459596 97.23249245 47.09033585 C100.32771844 48.63535572 103.42332283 50.17960761 106.51977539 51.72216797 C118.82946233 57.85509901 131.12265334 64.00576235 143.2666626 70.4627533 C148.83161027 73.41215425 154.4488372 76.24222751 160.09765625 79.02734375 C160.9223793 79.43458679 161.74710236 79.84182983 162.59681702 80.26141357 C165.94792668 81.9144105 169.30012291 83.56502618 172.6574707 85.20532227 C175.16196468 86.43050323 177.66137363 87.66556552 180.16015625 88.90234375 C180.92143326 89.27109116 181.68271027 89.63983856 182.46705627 90.01976013 C185.91164821 91.73336271 187.82589808 92.73884712 190 96 C177.12526418 102.93666514 164.07676939 109.51738999 151 116.0625 C149.70639557 116.71117538 149.70639557 116.71117538 148.38665771 117.37295532 C145.90476086 118.61685004 143.42140628 119.85777982 140.9375 121.09765625 C140.18195831 121.47641907 139.42641663 121.85518188 138.64797974 122.24542236 C132.49017933 125.31063148 126.85788069 127.53510559 120.02304077 125.37527466 C117.94262488 124.47154623 115.93356517 123.48169819 113.91796875 122.44140625 C113.15920441 122.06611786 112.40044006 121.69082947 111.61868286 121.3041687 C109.13412566 120.0713818 106.6611462 118.81701594 104.1875 117.5625 C102.43922063 116.69048179 100.6901021 115.82014414 98.94018555 114.95141602 C95.3563536 113.17084342 91.77615899 111.38324669 88.19824219 109.59082031 C81.31223355 106.14892864 74.37830941 102.80793908 67.44351196 99.46582031 C44.89441119 88.58474655 22.34377299 77.61358617 0.24658203 65.83642578 C-6.93614188 62.01008452 -14.17450549 58.29391967 -21.41287231 54.5743103 C-41.53759278 44.23223569 -41.53759278 44.23223569 -50.25 39.625 C-50.89146973 39.28654053 -51.53293945 38.94808105 -52.19384766 38.59936523 C-55.52465135 36.82857576 -58.78361018 34.97094564 -62 33 C-58.4673769 29.80924365 -55.01156682 28.01408444 -50.6953125 26.18359375 C-45.67176006 23.97759898 -40.80797606 21.43521459 -35.91210938 18.96191406 C-33.99185014 17.9959001 -32.06710573 17.03947756 -30.140625 16.0859375 C-22.90120134 12.49855254 -15.70793403 8.83405764 -8.5625 5.0625 C-7.82217529 4.67271973 -7.08185059 4.28293945 -6.3190918 3.88134766 C-2.94760746 2.24566824 -2.94760746 2.24566824 0 0 Z " fill="#F7F8F8" transform="translate(511,291)"/>
<path d="M0 0 C0.99 0.33 1.98 0.66 3 1 C2 4 2 4 -0.9375 5.5 C-4.85494846 7.05557725 -8.89246288 8.16611168 -12.9609375 9.25390625 C-15.18814792 9.80438525 -15.18814792 9.80438525 -16 12 C-17.99609375 13.0703125 -17.99609375 13.0703125 -20.4375 14.125 C-21.24058594 14.47820313 -22.04367187 14.83140625 -22.87109375 15.1953125 C-25 16 -25 16 -27 16 C-27 15.34 -27 14.68 -27 14 C-26.43079834 13.71801758 -25.86159668 13.43603516 -25.27514648 13.14550781 C-22.66151453 11.84917609 -20.04950207 10.54961249 -17.4375 9.25 C-16.54224609 8.8065625 -15.64699219 8.363125 -14.72460938 7.90625 C-10.74214961 5.922314 -6.83225057 3.930987 -3.03515625 1.609375 C-2.03355469 1.07828125 -1.03195312 0.5471875 0 0 Z " fill="#E4F2F6" transform="translate(556,519)"/>
<path d="M0 0 C1.32 0.66 2.64 1.32 4 2 C3.81640625 3.828125 3.81640625 3.828125 3 6 C0.71484375 7.484375 0.71484375 7.484375 -2.0625 8.75 C-3.44115234 9.39195312 -3.44115234 9.39195312 -4.84765625 10.046875 C-5.55792969 10.36140625 -6.26820313 10.6759375 -7 11 C-6.34 11.66 -5.68 12.32 -5 13 C-6.32 13.33 -7.64 13.66 -9 14 C-9 14.66 -9 15.32 -9 16 C-9.99 16 -10.98 16 -12 16 C-12 15.34 -12 14.68 -12 14 C-13.97536745 14.34786708 -13.97536745 14.34786708 -16 15 C-16.33 15.66 -16.66 16.32 -17 17 C-18.65 17 -20.3 17 -22 17 C-19.20589272 14.7922064 -16.42538677 13.09458193 -13.234375 11.51953125 C-12.34492187 11.07802734 -11.45546875 10.63652344 -10.5390625 10.18164062 C-9.15847656 9.50391602 -9.15847656 9.50391602 -7.75 8.8125 C-6.81414063 8.34908203 -5.87828125 7.88566406 -4.9140625 7.40820312 C-2.6111434 6.26849316 -0.30643726 5.13256871 2 4 C1.34 2.68 0.68 1.36 0 0 Z " fill="#1E7BCE" transform="translate(698,383)"/>
<path d="M0 0 C4.72664128 1.43135167 9.00822935 3.40739707 13.3671875 5.6953125 C14.04677521 6.04761932 14.72636292 6.39992615 15.42654419 6.76290894 C17.57817889 7.8795268 19.72661044 9.00215335 21.875 10.125 C23.34093772 10.88711919 24.80708156 11.64884204 26.2734375 12.41015625 C29.85135882 14.26886161 33.42642173 16.1329592 37 18 C32.87693897 19.37435368 30.26592982 17.82918203 26.4375 16.25 C25.75236328 15.98445313 25.06722656 15.71890625 24.36132812 15.4453125 C20.79973357 14.00529586 19.17964759 13.26947139 17 10 C15.30869708 8.90448873 15.30869708 8.90448873 13.33984375 8.02734375 C12.62892578 7.68509766 11.91800781 7.34285156 11.18554688 6.99023438 C10.44369141 6.64283203 9.70183594 6.29542969 8.9375 5.9375 C1.12987564 2.25975127 1.12987564 2.25975127 0 0 Z " fill="#1473CC" transform="translate(502,352)"/>
<path d="M0 0 C-2 2 -2 2 -5 2.375 C-5.99 2.58125 -6.98 2.7875 -8 3 C-8.2990625 3.61488281 -8.598125 4.22976563 -8.90625 4.86328125 C-10.31313518 7.61173195 -11.80449168 8.36410186 -14.5 9.8125 C-15.2940625 10.25207031 -16.088125 10.69164062 -16.90625 11.14453125 C-17.94265625 11.56798828 -17.94265625 11.56798828 -19 12 C-19.66 11.67 -20.32 11.34 -21 11 C-22.32860925 10.64830932 -23.66158328 10.31229724 -25 10 C-21.40400558 8.12965549 -17.79702853 6.28157151 -14.1875 4.4375 C-12.65125977 3.63795898 -12.65125977 3.63795898 -11.08398438 2.82226562 C-10.10107422 2.32275391 -9.11816406 1.82324219 -8.10546875 1.30859375 C-7.19949951 0.84251709 -6.29353027 0.37644043 -5.36010742 -0.10375977 C-3 -1 -3 -1 0 0 Z " fill="#E8F4F7" transform="translate(607,496)"/>
<path d="M0 0 C0.33 0.99 0.66 1.98 1 3 C0.67 3.66 0.34 4.32 0 5 C-0.99 5.33 -1.98 5.66 -3 6 C-3.0928125 7.175625 -3.0928125 7.175625 -3.1875 8.375 C-3.455625 9.24125 -3.72375 10.1075 -4 11 C-6.375 12.0625 -6.375 12.0625 -9 13 C-10.03647024 14.30518475 -11.04422943 15.63461347 -12 17 C-12.66 17 -13.32 17 -14 17 C-14 17.66 -14 18.32 -14 19 C-15.98 19.66 -17.96 20.32 -20 21 C-15.76183463 15.93376232 -11.32591037 11.19961931 -6.625 6.5625 C-5.98433594 5.92634766 -5.34367188 5.29019531 -4.68359375 4.63476562 C-3.12469121 3.08749668 -1.56348584 1.54263508 0 0 Z " fill="#0D75D2" transform="translate(621,554)"/>
<path d="M0 0 C0.66 0.33 1.32 0.66 2 1 C1.31292969 1.66386719 0.62585938 2.32773437 -0.08203125 3.01171875 C-1.43361328 4.33623047 -1.43361328 4.33623047 -2.8125 5.6875 C-3.70582031 6.55761719 -4.59914063 7.42773438 -5.51953125 8.32421875 C-7.79764383 10.78171027 -9.34641968 13.10870986 -11 16 C-14.4137931 19 -14.4137931 19 -17 19 C-17 19.66 -17 20.32 -17 21 C-19.31 21.33 -21.62 21.66 -24 22 C-21.5 20 -21.5 20 -19 18 C-17.6696875 16.88625 -17.6696875 16.88625 -16.3125 15.75 C-14 14 -14 14 -12 14 C-11.66355469 13.17242188 -11.66355469 13.17242188 -11.3203125 12.328125 C-9.59614817 9.28788256 -7.37484178 7.18574327 -4.875 4.75 C-3.96492187 3.85796875 -3.05484375 2.9659375 -2.1171875 2.046875 C-1.41851563 1.37140625 -0.71984375 0.6959375 0 0 Z " fill="#A9D4F8" transform="translate(549,690)"/>
<path d="M0 0 C0 0.99 0 1.98 0 3 C-2.62561109 3.08074203 -5.24875676 3.1403623 -7.875 3.1875 C-8.99455078 3.22520508 -8.99455078 3.22520508 -10.13671875 3.26367188 C-12.3046875 3.29296875 -12.3046875 3.29296875 -16 3 C-16.66 2.01 -17.32 1.02 -18 0 C-12.35590541 -1.88136486 -5.73055582 -1.52814822 0 0 Z " fill="#268BDD" transform="translate(521,236)"/>
<path d="M0 0 C0.66 0.33 1.32 0.66 2 1 C1.78125 2.86328125 1.78125 2.86328125 1 5 C-1.03125 6.23046875 -1.03125 6.23046875 -3.5 7.1875 C-6.48665147 8.22324822 -6.48665147 8.22324822 -9 10 C-11.67058851 10.14115161 -14.32432238 10.04247107 -17 10 C-13.66248862 7.33656727 -10.11898148 5.29524496 -6.375 3.25 C-5.22773437 2.61578125 -4.08046875 1.9815625 -2.8984375 1.328125 C-1.46371094 0.67070313 -1.46371094 0.67070313 0 0 Z " fill="#DDEEF8" transform="translate(658,755)"/>
<path d="M0 0 C0.66 0.33 1.32 0.66 2 1 C-0.92244355 5.20831872 -4.15725047 8.22400167 -9 10 C-11.76682414 10.30527131 -14.20379548 10.19622488 -17 10 C-15.75 8.5 -15.75 8.5 -14 7 C-12.68 7 -11.36 7 -10 7 C-10 6.34 -10 5.68 -10 5 C-9.36191406 4.72285156 -8.72382813 4.44570313 -8.06640625 4.16015625 C-6.82697266 3.61681641 -6.82697266 3.61681641 -5.5625 3.0625 C-4.73878906 2.70285156 -3.91507812 2.34320313 -3.06640625 1.97265625 C-1.05589883 1.16877677 -1.05589883 1.16877677 0 0 Z " fill="#DDECF7" transform="translate(351,371)"/>
<path d="M0 0 C0.66 0.33 1.32 0.66 2 1 C1.01 2.485 1.01 2.485 0 4 C-0.99 4 -1.98 4 -3 4 C-3 4.99 -3 5.98 -3 7 C-4.43554025 7.50559908 -5.8735202 8.0042749 -7.3125 8.5 C-8.11300781 8.7784375 -8.91351562 9.056875 -9.73828125 9.34375 C-12.57637816 10.16723926 -14.3244399 10.33778005 -17 9 C-14.21526125 7.46621464 -11.42121662 5.9502442 -8.625 4.4375 C-7.8309375 3.99986328 -7.036875 3.56222656 -6.21875 3.11132812 C-5.45820312 2.70205078 -4.69765625 2.29277344 -3.9140625 1.87109375 C-2.8614624 1.29766235 -2.8614624 1.29766235 -1.78759766 0.71264648 C-1.19769043 0.47747314 -0.6077832 0.2422998 0 0 Z " fill="#1277D2" transform="translate(535,761)"/>
<path d="M0 0 C4.73789165 1.44323469 8.98858151 3.37226733 13.375 5.625 C14.01566406 5.94984375 14.65632812 6.2746875 15.31640625 6.609375 C16.87947501 7.40257407 18.44000622 8.20077031 20 9 C16.30558125 10.23147292 15.48015214 9.44298991 12 8 C10.68 8 9.36 8 8 8 C8 7.34 8 6.68 8 6 C7.01 6 6.02 6 5 6 C5 5.34 5 4.68 5 4 C3.02 4 1.04 4 -1 4 C-0.67 2.68 -0.34 1.36 0 0 Z " fill="#1177D1" transform="translate(731,341)"/>
<path d="M0 0 C-0.33 2.97 -0.66 5.94 -1 9 C-7.75 7.375 -7.75 7.375 -10 4 C-8.71086513 3.32845067 -7.41859796 2.66291141 -6.125 2 C-5.40570313 1.62875 -4.68640625 1.2575 -3.9453125 0.875 C-2 0 -2 0 0 0 Z " fill="#F4F9F9" transform="translate(459,319)"/>
<path d="M0 0 C0 0.66 0 1.32 0 2 C0.99 2 1.98 2 3 2 C3 2.66 3 3.32 3 4 C0.35261084 5.4606285 -0.89448334 6 -4 6 C-4 5.34 -4 4.68 -4 4 C-5.093125 4.515625 -6.18625 5.03125 -7.3125 5.5625 C-11 7 -11 7 -14 6 C-12.04414675 4.99515796 -10.08523763 3.99626195 -8.125 3 C-6.48917969 2.1646875 -6.48917969 2.1646875 -4.8203125 1.3125 C-2 0 -2 0 0 0 Z " fill="#1D7CCF" transform="translate(632,713)"/>
<path d="M0 0 C2.6274838 1.28680869 5.25196683 2.57917678 7.875 3.875 C8.62136719 4.23980469 9.36773438 4.60460937 10.13671875 4.98046875 C10.85214844 5.33496094 11.56757812 5.68945312 12.3046875 6.0546875 C12.96452637 6.37937012 13.62436523 6.70405273 14.30419922 7.03857422 C16 8 16 8 18 10 C17.34 10 16.68 10 16 10 C15.67 10.66 15.34 11.32 15 12 C15 11.01 15 10.02 15 9 C13.68 9.33 12.36 9.66 11 10 C10.67 9.01 10.34 8.02 10 7 C9.01 6.67 8.02 6.34 7 6 C6.67 6.66 6.34 7.32 6 8 C5.34 8 4.68 8 4 8 C4 6.35 4 4.7 4 3 C2.68 2.67 1.36 2.34 0 2 C0 1.34 0 0.68 0 0 Z " fill="#1C7CD0" transform="translate(565,257)"/>
<path d="M0 0 C0.33 0 0.66 0 1 0 C1.05447822 2.52113092 1.09389852 5.0410585 1.125 7.5625 C1.14175781 8.26697266 1.15851562 8.97144531 1.17578125 9.69726562 C1.22022044 14.51891822 0.52768004 18.42297438 -1 23 C-2.32 23.33 -3.64 23.66 -5 24 C-4.54625 22.824375 -4.0925 21.64875 -3.625 20.4375 C-1.38770598 13.82104755 -0.77348028 6.90672395 0 0 Z " fill="#DBF1FA" transform="translate(787,664)"/>
<path d="M0 0 C0.66 0.33 1.32 0.66 2 1 C0.625 3.5 0.625 3.5 -1 6 C-1.66 6 -2.32 6 -3 6 C-3 6.66 -3 7.32 -3 8 C-7.75 7.25 -7.75 7.25 -10 5 C-8.38007835 4.13624104 -6.75388139 3.28424146 -5.125 2.4375 C-4.22007812 1.96183594 -3.31515625 1.48617187 -2.3828125 0.99609375 C-1.20332031 0.50302734 -1.20332031 0.50302734 0 0 Z " fill="#127EDA" transform="translate(481,247)"/>
<path d="M0 0 C5.02265357 1.18180084 8.0949151 2.44992282 12 6 C10.1875 6.625 10.1875 6.625 8 7 C7.01 6.34 6.02 5.68 5 5 C4.01 5 3.02 5 2 5 C1.67 5.66 1.34 6.32 1 7 C0.01 6.67 -0.98 6.34 -2 6 C-2 5.34 -2 4.68 -2 4 C-1.34 4 -0.68 4 0 4 C0 2.68 0 1.36 0 0 Z " fill="#1379D5" transform="translate(675,313)"/>
<path d="M0 0 C6.67107494 2.49294867 12.86363979 5.38340123 19 9 C16.53721199 10.231394 14.7204945 10.07159196 12 10 C12 9.34 12 8.68 12 8 C10.68 8 9.36 8 8 8 C7.67 7.01 7.34 6.02 7 5 C3.49705129 3.28432339 3.49705129 3.28432339 0 2 C0 1.34 0 0.68 0 0 Z " fill="#1C7ACC" transform="translate(604,277)"/>
<path d="M0 0 C0.33 0.99 0.66 1.98 1 3 C1.66 3 2.32 3 3 3 C3.33 3.66 3.66 4.32 4 5 C4.94875 5.309375 5.8975 5.61875 6.875 5.9375 C9.84689902 6.94794567 11.06088831 7.62997461 13 10 C12.01 10.495 12.01 10.495 11 11 C8.71741367 9.92325298 6.5643566 8.80453884 4.375 7.5625 C3.76398438 7.22412109 3.15296875 6.88574219 2.5234375 6.53710938 C1.011647 5.69853808 -0.49470399 4.85017423 -2 4 C-1.34 3.67 -0.68 3.34 0 3 C0 2.01 0 1.02 0 0 Z " fill="#127BD6" transform="translate(436,372)"/>
<path d="M0 0 C1.5 1.375 1.5 1.375 3 3 C3 3.66 3 4.32 3 5 C4.98 5.66 6.96 6.32 9 7 C9 7.99 9 8.98 9 10 C4.38 7.69 -0.24 5.38 -5 3 C-3.68 2.34 -2.36 1.68 -1 1 C-0.67 0.67 -0.34 0.34 0 0 Z " fill="#2282D8" transform="translate(566,437)"/>
<path d="M0 0 C1.32 0 2.64 0 4 0 C4 5.28 4 10.56 4 16 C3.34 16 2.68 16 2 16 C2 11.38 2 6.76 2 2 C1.34 2 0.68 2 0 2 C0 1.34 0 0.68 0 0 Z " fill="#1772C1" transform="translate(284,428)"/>
<path d="M0 0 C0 3 0 3 -1.875 4.9375 C-2.57625 5.618125 -3.2775 6.29875 -4 7 C-5.23512079 9.13309192 -5.23512079 9.13309192 -6 11 C-6.66 11 -7.32 11 -8 11 C-8.33 11.99 -8.66 12.98 -9 14 C-9.99 13.34 -10.98 12.68 -12 12 C-8.04 8.04 -4.08 4.08 0 0 Z " fill="#0A70CB" transform="translate(581,594)"/>
<path d="M0 0 C1.77395508 0.42466497 3.54410631 0.8652409 5.3125 1.3125 C6.29863281 1.55613281 7.28476562 1.79976563 8.30078125 2.05078125 C11.00141012 3.00049589 12.20956216 3.81847677 14 6 C11.3921814 6.98464547 10.31037786 7.1236295 7.67578125 6.07421875 C6.89589844 5.61660156 6.11601562 5.15898437 5.3125 4.6875 C4.52488281 4.23761719 3.73726563 3.78773438 2.92578125 3.32421875 C1 2 1 2 0 0 Z " fill="#2286DD" transform="translate(345,455)"/>
<path d="M0 0 C0.66 0.33 1.32 0.66 2 1 C0.03423089 2.23409326 -1.93333412 3.46484791 -3.90625 4.6875 C-5.5194607 5.69876641 -7.10897007 6.74791005 -8.6875 7.8125 C-11.32990181 9.16940904 -13.06942004 9.25119257 -16 9 C-12.82117052 6.45079375 -9.50731355 4.58846828 -5.875 2.75 C-4.82054687 2.20859375 -3.76609375 1.6671875 -2.6796875 1.109375 C-1.79539062 0.74328125 -0.91109375 0.3771875 0 0 Z " fill="#DEF0F8" transform="translate(697,448)"/>
<path d="M0 0 C2 1 2 1 3.6875 2.375 C6.64841229 4.45564107 9.64568251 5.64537178 13 7 C12.67 7.66 12.34 8.32 12 9 C6.52067211 7.45454854 1.88570819 4.84456788 -3 2 C-2.01 1.34 -1.02 0.68 0 0 Z " fill="#2381D4" transform="translate(399,480)"/>
<path d="M0 0 C0 3.28176588 -0.47835901 5.10888212 -2 8 C-3.32148827 8.37756808 -4.65835921 8.7018576 -6 9 C-8.12577266 10.54743745 -10.0283939 12.25244005 -12 14 C-10.41332422 10.09714233 -7.86649519 7.66479018 -4.875 4.75 C-3.96492187 3.85796875 -3.05484375 2.9659375 -2.1171875 2.046875 C-1.41851563 1.37140625 -0.71984375 0.6959375 0 0 Z " fill="#AAD4F9" transform="translate(679,560)"/>
<path d="M0 0 C1.65 0 3.3 0 5 0 C2.10414095 2.29648357 -0.8172031 4.04347557 -4.125 5.6875 C-5.42824219 6.34298828 -5.42824219 6.34298828 -6.7578125 7.01171875 C-9 8 -9 8 -11 8 C-11 7.34 -11 6.68 -11 6 C-7.36685428 3.54517181 -4.45083817 2 0 2 C0 1.34 0 0.68 0 0 Z " fill="#E6F5F9" transform="translate(673,689)"/>
<path d="M0 0 C0.66 0.33 1.32 0.66 2 1 C1.01 2.485 1.01 2.485 0 4 C-1.32 4 -2.64 4 -4 4 C-4 4.66 -4 5.32 -4 6 C-9.45769231 9.10096154 -9.45769231 9.10096154 -12.203125 8.58984375 C-12.79609375 8.39519531 -13.3890625 8.20054687 -14 8 C-11.7136988 6.63597957 -9.42178251 5.28365726 -7.125 3.9375 C-6.47402344 3.54755859 -5.82304688 3.15761719 -5.15234375 2.75585938 C-3.46934275 1.77555467 -1.73703801 0.88101568 0 0 Z " fill="#D9EFFA" transform="translate(772,697)"/>
<path d="M0 0 C1.485 0.99 1.485 0.99 3 2 C3.1875 4.625 3.1875 4.625 3 7 C4.65 6.34 6.3 5.68 8 5 C7.67 5.763125 7.34 6.52625 7 7.3125 C5.82563314 9.99069135 5.82563314 9.99069135 6 13 C0 5.8 0 5.8 0 0 Z " fill="#1778CE" transform="translate(417,619)"/>
<path d="M0 0 C-0.99 1.485 -0.99 1.485 -2 3 C-2.66 2.79375 -3.32 2.5875 -4 2.375 C-8.09630108 1.86296237 -11.04235979 2.85966299 -15 4 C-13.64158852 1.28317704 -11.71294009 0.65947312 -8.98828125 -0.46875 C-5.84825112 -1.30773644 -3.11863224 -0.70010111 0 0 Z " fill="#D4EAF8" transform="translate(392,355)"/>
<path d="M0 0 C-3.96 1.98 -7.92 3.96 -12 6 C-12.66 5.34 -13.32 4.68 -14 4 C-12.42466914 3.13116294 -10.83935491 2.28040932 -9.25 1.4375 C-8.36828125 0.96183594 -7.4865625 0.48617187 -6.578125 -0.00390625 C-4 -1 -4 -1 0 0 Z " fill="#DEEFF5" transform="translate(488,244)"/>
<path d="M0 0 C0.66 0.33 1.32 0.66 2 1 C2 1.66 2 2.32 2 3 C-4.435 5.97 -4.435 5.97 -11 9 C-9 5 -9 5 -6.8359375 3.953125 C-6.02382813 3.72109375 -5.21171875 3.4890625 -4.375 3.25 C-3.14910156 2.88648438 -3.14910156 2.88648438 -1.8984375 2.515625 C-1.27195312 2.34546875 -0.64546875 2.1753125 0 2 C0 1.34 0 0.68 0 0 Z " fill="#E5F3F8" transform="translate(700,675)"/>
<path d="M0 0 C3.85025879 0.60355408 6.86101159 1.76772603 10.3125 3.5625 C11.19550781 4.01753906 12.07851563 4.47257812 12.98828125 4.94140625 C13.65214844 5.29074219 14.31601562 5.64007813 15 6 C11.58407513 7.13864162 10.78557691 6.84292788 7.5 5.6875 C6.7265625 5.42324219 5.953125 5.15898437 5.15625 4.88671875 C3 4 3 4 0 2 C0 1.34 0 0.68 0 0 Z " fill="#1B77CA" transform="translate(614,408)"/>
<path d="M0 0 C4.23429756 1.31061591 8.07407404 2.94356259 12 5 C12 5.33 12 5.66 12 6 C9.69 6 7.38 6 5 6 C5 5.34 5 4.68 5 4 C2.03 3.505 2.03 3.505 -1 3 C-0.67 2.01 -0.34 1.02 0 0 Z " fill="#1075CF" transform="translate(699,325)"/>
<path d="M0 0 C-4.30769231 3.93846154 -4.30769231 3.93846154 -7.8125 4.25 C-8.8953125 4.12625 -8.8953125 4.12625 -10 4 C-10.33 4.66 -10.66 5.32 -11 6 C-11.66 5.34 -12.32 4.68 -13 4 C-11.40233897 3.13372601 -9.79660056 2.28233535 -8.1875 1.4375 C-7.29417969 0.96183594 -6.40085937 0.48617187 -5.48046875 -0.00390625 C-3 -1 -3 -1 0 0 Z " fill="#CDE8FA" transform="translate(597,789)"/>
<path d="M0 0 C-0.66 0.66 -1.32 1.32 -2 2 C-2.99 2 -3.98 2 -5 2 C-5 2.66 -5 3.32 -5 4 C-7.31 4.33 -9.62 4.66 -12 5 C-8.77464852 1.23708994 -4.90542108 -1.63514036 0 0 Z " fill="#1C7ACF" transform="translate(272,354)"/>
<path d="M0 0 C0.66 0.33 1.32 0.66 2 1 C1.01 1.33 0.02 1.66 -1 2 C-2.20882096 4.00016466 -2.20882096 4.00016466 -3 6 C-3 5.34 -3 4.68 -3 4 C-3.66 4 -4.32 4 -5 4 C-4.67 4.99 -4.34 5.98 -4 7 C-6.97 6.505 -6.97 6.505 -10 6 C-6.87511433 3.47605388 -3.68685613 1.60298093 0 0 Z " fill="#1774C8" transform="translate(656,409)"/>
<path d="M0 0 C1.98 0 3.96 0 6 0 C6 0.66 6 1.32 6 2 C6.99 2 7.98 2 9 2 C8.67 2.99 8.34 3.98 8 5 C2.25 3.125 2.25 3.125 0 2 C0 1.34 0 0.68 0 0 Z " fill="#2488DD" transform="translate(643,355)"/>
<path d="M0 0 C-3.40219265 2.74792483 -7.48464588 6 -12 6 C-11 3 -11 3 -8.25 1.3125 C-5.14979295 0.06049331 -3.28328088 -0.28970125 0 0 Z " fill="#3691E4" transform="translate(503,296)"/>
<path d="M0 0 C0.66 0.33 1.32 0.66 2 1 C1.34 1.66 0.68 2.32 0 3 C0.33 3.99 0.66 4.98 1 6 C-0.32 6 -1.64 6 -3 6 C-3 5.34 -3 4.68 -3 4 C-3.66 3.67 -4.32 3.34 -5 3 C-2.625 1.4375 -2.625 1.4375 0 0 Z M-5 6 C-4.34 6.33 -3.68 6.66 -3 7 C-3.99 7 -4.98 7 -6 7 C-5.67 6.67 -5.34 6.34 -5 6 Z " fill="#1A7CD0" transform="translate(664,405)"/>
<path d="M0 0 C0 0.66 0 1.32 0 2 C-0.99 2 -1.98 2 -3 2 C-3.66 3.32 -4.32 4.64 -5 6 C-6.65 5.67 -8.3 5.34 -10 5 C-3.63636364 0 -3.63636364 0 0 0 Z M-8 6 C-6 7 -6 7 -6 7 Z " fill="#D2EAF7" transform="translate(641,765)"/>
<path d="M0 0 C1.65 0 3.3 0 5 0 C1.54077371 2.95051654 -1.7838704 5.25855517 -6 7 C-6.99 6.67 -7.98 6.34 -9 6 C-2.25 2 -2.25 2 0 2 C0 1.34 0 0.68 0 0 Z " fill="#187AD1" transform="translate(547,521)"/>
<path d="M0 0 C-1 3 -1 3 -4.3125 4.75 C-7.93653994 5.97848812 -8.6258971 6.10235591 -12 5 C-10.37750059 4.16180842 -8.75191503 3.3295884 -7.125 2.5 C-6.22007812 2.0359375 -5.31515625 1.571875 -4.3828125 1.09375 C-2 0 -2 0 0 0 Z " fill="#D4EBF9" transform="translate(726,434)"/>
<path d="M0 0 C1.67542976 0.28604898 3.34385343 0.61781233 5 1 C5 1.66 5 2.32 5 3 C5.99 2.67 6.98 2.34 8 2 C8.33 3.32 8.66 4.64 9 6 C5.08788267 4.84414715 2.1254959 3.64465038 -1 1 C-0.67 0.67 -0.34 0.34 0 0 Z " fill="#DDEDF4" transform="translate(630,288)"/>
<path d="M0 0 C0 1.65 0 3.3 0 5 C-0.5775 5.0825 -1.155 5.165 -1.75 5.25 C-4.6159304 6.20531013 -5.9990764 7.78469173 -8 10 C-8.66 9.67 -9.32 9.34 -10 9 C-8.52386015 7.49702124 -7.04400843 5.99768715 -5.5625 4.5 C-4.73878906 3.6646875 -3.91507813 2.829375 -3.06640625 1.96875 C-1 0 -1 0 0 0 Z " fill="#2E80CB" transform="translate(633,542)"/>
<path d="M0 0 C1.44096586 0.42594588 2.87768712 0.86626633 4.3125 1.3125 C5.11300781 1.55613281 5.91351562 1.79976563 6.73828125 2.05078125 C9 3 9 3 12 6 C8.37 5.34 4.74 4.68 1 4 C0.67 2.68 0.34 1.36 0 0 Z " fill="#0F71CB" transform="translate(639,295)"/>
<path d="M0 0 C0 0.99 0 1.98 0 3 C-6.625 6 -6.625 6 -10 6 C-8.71283353 4.99421411 -7.42011342 3.99553202 -6.125 3 C-5.40570313 2.443125 -4.68640625 1.88625 -3.9453125 1.3125 C-2 0 -2 0 0 0 Z " fill="#1575C9" transform="translate(256,361)"/>
<path d="M0 0 C0.66 0.33 1.32 0.66 2 1 C2 1.66 2 2.32 2 3 C-1.465 4.485 -1.465 4.485 -5 6 C-5.33 5.01 -5.66 4.02 -6 3 C-5.01 3 -4.02 3 -3 3 C-3 2.34 -3 1.68 -3 1 C-2.01 0.67 -1.02 0.34 0 0 Z " fill="#EBF5F7" transform="translate(527,762)"/>
<path d="M0 0 C4.75481646 0.57634139 7.97048212 2.55068521 12 5 C9 6 9 6 6.73828125 5.00390625 C5.93777344 4.52824219 5.13726562 4.05257812 4.3125 3.5625 C3.50425781 3.08941406 2.69601562 2.61632812 1.86328125 2.12890625 C1.24839844 1.75636719 0.63351562 1.38382813 0 1 C0 0.67 0 0.34 0 0 Z " fill="#1A7BD2" transform="translate(314,729)"/>
<path d="M0 0 C0 1.32 0 2.64 0 4 C-3.3 4.33 -6.6 4.66 -10 5 C-3.33333333 0 -3.33333333 0 0 0 Z " fill="#D9EEFA" transform="translate(746,712)"/>
<path d="M0 0 C-0.66 1.65 -1.32 3.3 -2 5 C-3.32 5 -4.64 5 -6 5 C-6.33 4.34 -6.66 3.68 -7 3 C-2.25 0 -2.25 0 0 0 Z " fill="#D5EBF6" transform="translate(456,320)"/>
<path d="M0 0 C0.66 0.33 1.32 0.66 2 1 C0.625 3.5 0.625 3.5 -1 6 C-1.66 6 -2.32 6 -3 6 C-3 5.34 -3 4.68 -3 4 C-3.99 3.67 -4.98 3.34 -6 3 C-4.03533587 1.93224776 -2.03144641 0.93446535 0 0 Z " fill="#1075D0" transform="translate(481,247)"/>
<path d="M0 0 C0.33 0.99 0.66 1.98 1 3 C0.01 3.33 -0.98 3.66 -2 4 C-2.3721042 5.32303717 -2.70630173 6.65737935 -3 8 C-3.99 8.495 -3.99 8.495 -5 9 C-4.5206753 4.68607774 -3.2542015 2.83430453 0 0 Z " fill="#DAECF8" transform="translate(652,588)"/>
<path d="M0 0 C4.12751449 0.60698743 7.3321148 2.03810791 11 4 C10.01 4.66 9.02 5.32 8 6 C8 5.34 8 4.68 8 4 C7.01 4.33 6.02 4.66 5 5 C3.35 3.35 1.7 1.7 0 0 Z " fill="#0F70C8" transform="translate(599,401)"/>
<path d="M0 0 C2.00720923 0.28674418 4.0085944 0.61866701 6 1 C6 1.99 6 2.98 6 4 C1.25 3.25 1.25 3.25 -1 1 C-0.67 0.67 -0.34 0.34 0 0 Z " fill="#EBF4F6" transform="translate(552,375)"/>
<path d="M0 0 C1.98 0.66 3.96 1.32 6 2 C4.75 3.5625 4.75 3.5625 3 5 C0.8125 4.6875 0.8125 4.6875 -1 4 C-0.67 2.68 -0.34 1.36 0 0 Z " fill="#3192E5" transform="translate(344,370)"/>
<path d="M0 0 C1.98 0.495 1.98 0.495 4 1 C4.33 2.65 4.66 4.3 5 6 C3.02 5.34 1.04 4.68 -1 4 C-0.67 2.68 -0.34 1.36 0 0 Z " fill="#2184DA" transform="translate(432,496)"/>
<path d="M0 0 C1.65 0 3.3 0 5 0 C2.27521226 3.36591427 -1.06856792 4.44226276 -5 6 C-5 5.34 -5 4.68 -5 4 C-4.0409375 3.8453125 -4.0409375 3.8453125 -3.0625 3.6875 C-2.381875 3.460625 -1.70125 3.23375 -1 3 C-0.67 2.01 -0.34 1.02 0 0 Z " fill="#177BD3" transform="translate(626,481)"/>
<path d="M0 0 C2.3431213 0.25561323 4.67843403 0.59270772 7 1 C7.33 1.66 7.66 2.32 8 3 C5.39417629 3.93065133 4.35801776 4.14917407 1.75 3.0625 C1.1725 2.711875 0.595 2.36125 0 2 C0 1.34 0 0.68 0 0 Z " fill="#E5F0F2" transform="translate(479,464)"/>
<path d="M0 0 C3.68802044 1.22934015 4.72356973 2.93859378 7 6 C3.22454612 4.90931332 0.52956528 4.0916909 -2 1 C-1.34 0.67 -0.68 0.34 0 0 Z " fill="#167BD5" transform="translate(409,774)"/>
<path d="M0 0 C2.31 0 4.62 0 7 0 C4.37801226 2.15377564 2.35595828 3.40072174 -1 4 C-0.67 2.68 -0.34 1.36 0 0 Z " fill="#EBF6FA" transform="translate(723,663)"/>
<path d="M0 0 C-1.36983503 3.16115776 -1.9890638 3.9927092 -5 6 C-5.33 5.01 -5.66 4.02 -6 3 C-3.375 0 -3.375 0 0 0 Z " fill="#EAF5F8" transform="translate(611,563)"/>
<path d="M0 0 C2.31 0 4.62 0 7 0 C7 0.66 7 1.32 7 2 C4.69 2.33 2.38 2.66 0 3 C0 2.01 0 1.02 0 0 Z " fill="#0971D0" transform="translate(656,524)"/>
<path d="M0 0 C0.33 0.99 0.66 1.98 1 3 C-2.465 4.485 -2.465 4.485 -6 6 C-6.66 5.34 -7.32 4.68 -8 4 C-5.36 2.68 -2.72 1.36 0 0 Z " fill="#E7F5F7" transform="translate(640,477)"/>
<path d="M0 0 C1.98 0 3.96 0 6 0 C6.66 1.32 7.32 2.64 8 4 C2.25 2.25 2.25 2.25 0 0 Z " fill="#2282D9" transform="translate(434,789)"/>
<path d="M0 0 C2.88575819 0.39803561 3.82189513 0.79009069 5.75 3.0625 C6.1625 3.701875 6.575 4.34125 7 5 C4.0625 4.1875 4.0625 4.1875 1 3 C0.67 2.01 0.34 1.02 0 0 Z " fill="#2380D4" transform="translate(499,642)"/>
<path d="M0 0 C4.455 0.99 4.455 0.99 9 2 C7.02 2.99 7.02 2.99 5 4 C2.25 2.6875 2.25 2.6875 0 1 C0 0.67 0 0.34 0 0 Z " fill="#2181D6" transform="translate(497,407)"/>
<path d="M0 0 C-2.96687001 1.64826111 -5.65626525 2.44271087 -9 3 C-5.83583464 -0.30799106 -4.50236011 -1.35070803 0 0 Z " fill="#1B78C9" transform="translate(676,402)"/>
<path d="M0 0 C0.33 0.66 0.66 1.32 1 2 C-1.48387097 8.74193548 -1.48387097 8.74193548 -4 10 C-3.52449439 8.51965236 -3.04448784 7.04074979 -2.5625 5.5625 C-2.29566406 4.73878906 -2.02882812 3.91507812 -1.75390625 3.06640625 C-1 1 -1 1 0 0 Z " fill="#1287EA" transform="translate(244,371)"/>
<path d="M0 0 C0.66 0.66 1.32 1.32 2 2 C2.66 1.67 3.32 1.34 4 1 C4 1.99 4 2.98 4 4 C2.02 4.99 2.02 4.99 0 6 C-0.66 4.68 -1.32 3.36 -2 2 C-1.34 1.34 -0.68 0.68 0 0 Z " fill="#147BD2" transform="translate(245,368)"/>
<path d="M0 0 C0.99 1.32 1.98 2.64 3 4 C1.68 4.33 0.36 4.66 -1 5 C-1 4.34 -1 3.68 -1 3 C-1.99 2.67 -2.98 2.34 -4 2 C-2.68 1.34 -1.36 0.68 0 0 Z " fill="#2483D6" transform="translate(323,326)"/>
<path d="M0 0 C0.66 0.33 1.32 0.66 2 1 C1.01 1.33 0.02 1.66 -1 2 C-1.33 2.99 -1.66 3.98 -2 5 C-3.98 5 -5.96 5 -8 5 C-5.45378681 2.99940392 -3.01962385 1.20784954 0 0 Z " fill="#1F76C5" transform="translate(345,315)"/>
</svg>
